<svg width="466" height="466" viewBox="0 0 466 466" fill="none" xmlns="http://www.w3.org/2000/svg">
<g clip-path="url(#clip0_15_124)">
<path d="M463.505 243.823L461.769 250.347L452.351 253.526L449.532 250.219L448.164 250.595L450.72 260.456L454.546 260.885L459.649 262.816V264.748L461.986 264.32L465.391 259.607V255.751L467.308 251.895L469.435 252.324L466.879 246.965L466.489 243.515L463.505 243.823V243.823V243.823" fill="black"/>
<path d="M-20.6769 169.436L-17.0466 180.868L-18.7377 181.815L-18.5498 184.085L-15.3555 186.543V191.09L-11.4095 194.878L-13.1006 183.709L-15.3555 176.321L-14.7918 171.21L-12.9127 171.398L-12.1611 173.104L-12.9127 177.456L-3.14175 196.577V203.394L4.75019 212.669L13.3937 216.645L16.9639 214.563L22.0373 218.727L25.0437 215.698L23.7284 212.286L28.0502 210.963L29.3655 211.722L30.6808 210.399H32.7478L36.5058 203.77L34.6268 202.064L27.2986 203.77L25.6074 208.693L21.2857 209.452L16.2123 207.37L13.9574 200.177L15.6636 191.105L12.1761 188.933L10.5151 180.222L9.12457 179.628L6.58412 182.206L3.66786 180.65L2.52541 174.84L-9.02688 173.63L-14.9947 169.143L-20.6769 169.436V169.436V169.436" fill="black"/>
<path d="M265.147 107.977L260.937 107.826L258.269 109.457L258.232 110.668L259.96 112.299L265.334 113.208L265.147 107.977V107.977V107.977" fill="black"/>
<path d="M232.158 170.984L229.092 169.955L216.329 172.352L213.548 174.464L215.247 183.236L210.174 183.439L207.122 188.347L199.854 190.09L199.876 193.661L223.815 211.962L227.897 212.308L241.508 201.673L240.148 199.959L237.592 199.613L236.059 197.043V186.408L235.037 185.378L235.21 182.634L232.489 179.891L232.151 176.975L233.338 176.118L232.827 173.029L232.158 170.984V170.984V170.984" fill="black"/>
<path d="M212.924 174.585H204.243L202.545 178.358L198.629 180.244L195.397 188.993L189.098 192.766L180.252 207.34L188.933 207.167L189.271 202.883H191.481V197.05H199.14L199.313 189.504L206.633 187.79L209.7 182.815L214.465 182.642L212.924 174.585V174.585V174.585" fill="black"/>
<path d="M180.312 207.941L181.95 210.083L181.612 219.343L183.995 217.629L185.693 217.284L188.076 218.141L190.797 221.914L193.352 220.2L205.777 220.027L202.71 199.275L206.002 199.26L199.869 194.562L199.876 197.614L192.112 197.622L192.075 203.447L189.842 203.439L189.557 207.738L180.312 207.941V207.941V207.941" fill="black"/>
<path d="M184.235 218.208L181.274 220.358L180.598 221.56L180.387 222.763L181.477 223.545L185.115 223.492L187.452 222.861L187.715 224.011L187.505 225.529L189.737 226.626L190.203 227.152L193.165 227.258L193.27 225.95L190.564 222.703L187.55 218.622L185.678 217.84L184.235 218.208V218.208V218.208" fill="black"/>
<path d="M181.808 224.236L181.71 225.07L186.911 224.995L187.174 224.221L187.061 223.439L185.566 224.048L181.808 224.236V224.236V224.236" fill="black"/>
<path d="M181.733 225.649L182.665 227.912L183.183 226.514L189.504 227.175L186.768 225.769L181.733 225.649V225.649V225.649" fill="black"/>
<path d="M183.093 228.889L184.145 230.971L187.099 228.43L187.129 227.648L183.649 227.145L183.093 228.889V228.889V228.889" fill="black"/>
<path d="M184.461 231.452L186.746 234.969L189.722 232.384L192.774 232.248L195.314 235.623L197.471 237.044L198.283 235.465L199.005 235.059L198.952 231.587L197.516 227.468L193.112 227.957L187.663 227.521L187.633 228.919L184.461 231.452V231.452V231.452" fill="black"/>
<path d="M187.099 235.353L191.346 239.456L194.375 235.781L192.481 232.812L189.872 233.075L187.099 235.353V235.353V235.353" fill="black"/>
<path d="M191.789 239.907L200.042 245.424L199.846 241.245L197.351 238.306L194.916 236.149L191.789 239.907V239.907V239.907" fill="black"/>
<path d="M200.733 245.589L203.95 243.312L207.949 242.613L212.03 243.492L209.948 240.343L209.339 238.419L209.948 232.729L206.303 232.902L204.649 231.324L201.177 231.414L199.523 231.677L199.696 235.525L198.824 235.879L197.779 237.803L200.47 240.952L200.733 245.589V245.589V245.589" fill="black"/>
<path d="M191.255 222.357L193.57 220.771L206.438 220.696L203.462 199.997L206.859 199.899L223.297 212.443L225.506 212.759L224.672 219.734L214.337 220.674L206.363 226.626L204.912 230.7L199.373 230.933L197.96 226.867L193.713 227.167L193.879 225.837L191.255 222.357V222.357V222.357" fill="black"/>
<path d="M214.653 221.185L217.389 220.967L221.876 227.31L217.712 230.452L214.698 229.678L210.647 229.73L209.993 232.106L206.596 232.271L205.664 231.001L206.866 227.137L214.653 221.185V221.185V221.185" fill="black"/>
<path d="M222.395 226.987L224.311 226.942L226.04 224.349L228.941 223.83L232.03 225.717L238.622 225.905L243.718 223.83L245.635 222.184L245.777 220.02L249.333 216.435L250.272 208.52L247.935 203.62L241.952 202.161L228.107 212.955L226.145 212.767L225.304 220.26L218.238 220.967L222.395 226.987V226.987V226.987" fill="black"/>
<path d="M209.956 238.299L210.797 240.276L212.992 243.718L214.21 243.673L217.532 241.786L217.299 231.046L214.728 230.294L211.128 230.392L209.956 238.299V238.299V238.299" fill="black"/>
<path d="M218.133 241.456L220.147 240.276L220.102 232.496L218.795 230.377L217.953 231.083L218.133 241.456V241.456V241.456" fill="black"/>
<path d="M220.756 240.133H222.35L222.44 235.608L224.454 232.684L224.364 227.596L222.538 227.551L219.403 230.001L220.711 232.496L220.756 240.133V240.133V240.133" fill="black"/>
<path d="M222.906 240.043L225.852 240.185L229.407 244.146L231.136 244.62L232.489 243.959L234.548 243.673L235.247 240.802L238.051 238.96L241.087 238.817L246.649 228.588L246.559 226.281L243.989 224.304L238.848 226.566L231.97 226.468L228.693 224.394L226.356 224.913L225.138 227.032L225.048 233.015L223.086 235.796L222.906 240.043V240.043V240.043" fill="black"/>
<path d="M232.932 170.864L237.089 169.188L238.457 170.075L238.509 171.157L237.87 171.992L237.968 173.472L238.607 173.818V176.479L237.87 177.711L237.968 178.501L240.757 179.485L238.509 182.98L237.63 182.928L237.48 185.739L236.503 185.889L235.668 185.152L235.864 182.296L233.128 179.636L232.782 177.321L234.105 176.283L232.932 170.864V170.864V170.864" fill="black"/>
<path d="M236.796 186.423L237.968 186.227L238.314 183.521H238.9L241.298 179.583L247.213 181.304L248.829 183.814L254.646 186.475L257.675 185.197L257.382 183.92L256.059 182.642L256.21 181.755L258.359 179.936H262.614L264.23 182.101L267.649 182.597L268.093 210.324L265.552 210.226L250.204 202.244L248.543 203.184L242.237 201.605L240.524 199.343L238.028 198.997L236.758 196.735L236.796 186.423V186.423V186.423" fill="black"/>
<path d="M268.273 182.687L270.28 182.74L274.188 183.822L276.045 183.875L278.345 181.95H279.42L281.374 183.033H283.847L284.29 183.003L285.853 187.497L286.297 188.948L286.71 191.12L285.974 191.661L284.703 191.022L283.238 186.242L281.915 186.144L281.817 187.768L282.697 190.579L289.739 199.298L289.89 203.041L287.838 205.408L268.566 205.19L268.273 182.687V182.687V182.687" fill="black"/>
<path d="M246.371 222.477L246.469 220.26L250.032 216.795L250.986 208.287L248.611 203.747L250.272 202.898L266.357 211.278L266.259 219.501L263.425 221.914V226.153L265.282 229.746H262.005L256.578 235.112L256.435 236.736L252.429 236.683L252.377 237.42L250.092 237.119L248.528 234.165L247.356 233.586L247.506 232.684L248.979 231.557V226.281L246.942 225.965L244.485 224.139L246.371 222.477V222.477V222.477V222.477" fill="black"/>
<path d="M288.682 233.255L286.47 229.54L286.238 226.837L285.707 226.939L285.563 227.771L282.664 232.006L280.35 230.902L278.042 232.836L273.269 232.561L271.156 230.873L268.125 232.425L268.01 233.458L267.085 234.014L276.345 243.545L281.389 243.831L282.125 244.951L289.342 245.079L289.4 243.462L290.017 242.342L292.423 242.034L289.424 237.683H287.214L286.651 234.593L288.424 233.812L288.682 233.255V233.255" fill="black"/>
<path d="M290.874 203.394L288.101 206.19L268.709 206.017L268.919 210.955L267.071 210.902L266.936 219.794L264.132 222.207L264.019 225.92L266.042 229.911L268.258 231.219L268.225 231.531L271.246 229.983L273.55 231.824L277.789 232.068L280.237 230.017L282.407 231.051L284.85 227.482L285.055 226.297L286.917 225.943L287.206 229.304L289.067 232.43L293.58 222.726V216.826L296.858 212.962L290.874 203.394V203.394" fill="black"/>
<path d="M235.12 243.733L237.54 245.958L237.367 249.4L250.64 249.092L251.723 247.874L247.92 243.778L247.356 242.297L249.776 237.765L248.13 234.759L246.747 234.015V232.489L248.348 231.444L248.438 226.694L247.168 226.551L247.145 229.047L241.568 239.456L238.156 239.629L235.819 241.238L235.12 243.733V243.733V243.733" fill="black"/>
<path d="M294.414 221.5L294.226 217.073L297.203 213.601L298.007 214.217L299.473 219.118L306.508 224.356L305.23 225.927L300.082 221.5H294.414V221.5V221.5" fill="black"/>
<path d="M305.516 226.641L305.087 229.167L308.064 229.122L308.109 225.409L307.019 224.74L305.516 226.641V226.641V226.641" fill="black"/>
<path d="M288.988 234.323L294.459 222.147L299.894 222.177L304.711 226.363L304.373 229.813H308.109L308.492 231.888L314.535 235.503L318.263 235.691L311.175 243.305L301.442 246.304H299.029L294.73 242.636L293.031 241.922L289.739 237.074L287.567 237.104L287.312 234.879L288.988 234.323V234.323V234.323" fill="black"/>
<path d="M308.718 229.272L311.784 231.362L312.694 231.316L320.307 228.701L321.172 231.489L320.563 233.842L318.917 235.15L314.806 234.887L308.92 231.271L308.718 229.272V229.272V229.272" fill="black"/>
<path d="M326.666 225.221L328.267 227.01L330.432 225.702L331.213 225.439L330.221 224.477L328.32 225.04L326.666 225.221V225.221V225.221" fill="black"/>
<path d="M320.916 228.528L324.201 227.265L325.366 227.964L325.238 230.88L322.209 239.509L305.816 257.067L303.915 255.759L303.787 248.348L306.252 245.514L311.483 243.898L319.157 235.796L321.164 234.007L321.728 231.391L320.916 228.528V228.528V228.528" fill="black"/>
<path d="M248.528 243.56L252.031 247.348L253.414 245.559L255.616 245.65L256.09 243.906L258.254 242.553L262.749 245.65L265.342 243.079L275.406 243.523L266.071 233.887L267.326 233.105L267.499 231.407L265.379 230.407H262.268L257.255 235.375L257.082 237.42L253.106 237.292L252.978 238.164L250.385 237.901L248.047 242.343L248.528 243.56V243.56V243.56" fill="black"/>
<path d="M229.798 253.406L230.663 252.97L231.309 253.496L230.663 254.496L229.881 254.188L229.798 253.406V253.406V253.406" fill="black"/>
<path d="M231.534 250.663L232.835 250.445L233.271 251.272L232.624 251.971L231.978 251.881L231.534 250.663V250.663V250.663" fill="black"/>
<path d="M234.383 246.086L234.037 247.566L235.074 248.13L236.067 247.386L235.721 245.86L234.383 246.086V246.086V246.086" fill="black"/>
<path d="M241.561 250.009L241.471 251.88L237.232 251.79L234.639 256.804L240.734 263.47L242.245 262.208L242.2 260.9L241.163 260.419V259.502L243.5 258.021L245.575 259.592L247.867 259.637L247.822 251.753L244.192 251.58L244.146 249.926L241.561 250.009V250.009V250.009" fill="black"/>
<path d="M237.502 250.054L237.457 251.099L240.869 251.272L240.824 250.092L237.502 250.054V250.054V250.054" fill="black"/>
<path d="M245.026 249.926L244.981 251.016L248.573 251.106L248.701 260.434L245.417 260.344L243.515 258.863L242.042 259.69L241.974 260.103L242.733 260.471L242.951 262.388L240.922 264.132L241.358 265.049L243.605 263.305H244.688L245.033 264.35L246.461 264.959L251.046 261.08L250.956 258.247L251.911 255.939L254.849 253.76L255.639 246.386L253.549 246.394L251.129 249.708L245.026 249.926V249.926V249.926" fill="black"/>
<path d="M241.681 265.492L242.989 267.191L244.68 265.59L244.184 263.929L243.763 263.899L241.681 265.492V265.492V265.492" fill="black"/>
<path d="M243.808 267.356L251.557 267.221L253.128 269.453L253.068 271.099L253.647 271.625H257.495L258.6 269.453H260.171L260.81 270.1L262.967 270.04L263.606 277.616L267.334 277.736V278.322L277.353 282.839L277.819 283.719H279.916L279.683 280.547L275.895 278.728L276.128 276.323L277.759 272.505L281.487 272.385L278.285 261.757L278.345 257.24L283.411 249.318L283.471 248.205L282.712 247.792L282.742 245.642L281.817 245.559L280.885 244.372L265.59 243.68L262.786 246.409L258.194 243.387L256.578 244.379L255.406 254.248L252.504 256.488L251.633 258.472L251.79 261.411L246.559 265.688L245.169 265.056L245.357 265.876L243.808 267.356V267.356V267.356" fill="black"/>
<path d="M280.216 255.473L282.328 257.42L282.238 259.502L278.961 259.57V257.27L280.216 255.473V255.473V255.473" fill="black"/>
<path d="M279.006 260.216L282.216 260.148L281.381 262.959L280.57 263.666H279.577L278.871 261.764L279.006 260.216V260.216V260.216" fill="black"/>
<path d="M280.577 254.864L282.855 256.999L284.283 256.09L288.146 255.458L288.807 255.526L289.055 254.06L291.235 249.475L289.401 245.657L283.456 245.695L283.418 247.266L284.215 248.032L284.095 249.603L280.577 254.864V254.864V254.864" fill="black"/>
<path d="M289.995 245.417L291.994 249.317L289.596 254.346L289.281 255.872L301.254 263.275L304.967 257.442L303.088 255.917L303.05 248.235L305.403 245.665L301.652 246.912L298.819 246.95L294.384 243.207L292.986 242.606L290.393 242.846L289.935 243.613L289.995 245.417V245.417V245.417" fill="black"/>
<path d="M289.799 279.164L302.93 277.556L299.976 271.843L299.818 266.372L300.773 263.756L288.281 255.909L284.365 256.556L283.005 257.563L282.885 259.855L282.005 263.034L281.088 264.124L279.773 264.245L282.291 272.971L286.402 274.902L289.236 274.985L289.799 279.164V279.164V279.164" fill="black"/>
<path d="M262.726 289.145L265.109 292.453L268.799 292.678L270.107 293.4L273.97 293.445L277.3 288.777L286.605 284.613L287.417 280.945L286.334 275.692L281.479 272.926L278.24 273.151L276.624 276.729L276.669 278.36L280.487 280.216L280.712 284.252L277.428 284.433L276.616 283.072L267.492 279.179L267.221 282.17L262.907 282.306L262.726 289.145V289.145V289.145" fill="black"/>
<path d="M243.237 268.108L245.8 277.676L245.74 280.697L241.989 284.726L241.426 291.273L255.857 291.4L260.547 293.099L264.417 292.595L262.163 289.769L262.17 281.697L266.605 281.509V278.36L263.004 278.21L262.283 270.754L260.765 270.776L259.945 270.04L259.051 270.085L257.863 272.385H253.294L252.234 271.317L252.549 269.807L251.302 267.98L243.237 268.108V268.108V268.108" fill="black"/>
<path d="M287.236 285.162L289.574 287.605L289.529 290.731L289.98 292.047L293.084 288.694L292.723 284.433L291.062 283.163L289.581 275.684L287.018 275.594L288.183 280.983L287.236 285.162V285.162V285.162" fill="black"/>
<path d="M282.734 310.627L284.756 312.303L289.521 309.401L290.288 305.095V297.984L297.932 291.731L299.24 291.776L303.87 287.334L303.148 278.179L290.874 279.728L291.235 282.494L293.347 284.125L293.843 289.108L289.709 293.144L288.717 290.882L288.897 287.89L286.515 285.305L280.667 288.026L286.109 290.792L286.289 298.856L282.689 304.2L282.734 310.627V310.627V310.627" fill="black"/>
<path d="M270.325 294.858L277.067 302.472L282.238 303.787L285.703 298.353L285.433 291.152L279.81 288.251L277.698 289.206L274.549 294.008L270.19 293.963L270.325 294.858V294.858V294.858" fill="black"/>
<path d="M249.197 317.151L251.715 317.331L253.196 318.827L256.706 318.872L257.563 308.905V302.381L259.81 301.93L260.667 295.091L266.379 294.91L268.401 293.234L264.981 293.099L260.351 293.73L255.36 291.919H241.335L241.696 295.902L246.371 302.787L245.559 306.32L245.605 308.176L249.197 317.151V317.151V317.151" fill="black"/>
<path d="M258.187 309.086L259.802 309.582L259.577 314.204L261.238 314.43L265.056 310.987L269.641 311.483L270.859 308.402L276.661 303.103L269.694 295.083L269.604 293.768L268.837 293.542L266.725 295.489L261.238 295.624L260.471 302.464L258.314 302.96L258.187 309.086V309.086V309.086" fill="black"/>
<path d="M282.509 311.168L280.622 311.483L279.81 313.701L281.254 315.016H283.005L284.485 312.889L282.509 311.168V311.168V311.168" fill="black"/>
<path d="M272.392 319.729L274.684 317.962L275.767 318.007L277.075 319.638L276.939 321.269L274.737 322.081V322.712L272.309 322.577L271.723 320.811L272.392 319.729V319.729V319.729" fill="black"/>
<path d="M277.465 303.374L271.528 308.86L270.115 312.25L265.41 311.664L261.494 315.144L258.893 314.888L259.103 310.078L258.179 309.755L257.533 319.593L252.918 319.548L251.527 317.91L249.49 317.887L251.347 323.216L254.661 326.35L252.294 329.109L253.827 332.566L257.375 333.919L260.201 331.514L268.296 331.559L268.874 330.837L272.467 330.206L284.621 318.105L284.576 314.294L283.275 315.978H281.329L278.961 313.994L280.164 311.002L282.231 310.582L282.043 304.433L277.465 303.374V303.374V303.374M274.617 317.278L275.752 317.233L277.593 319.233L277.541 321.548L275.383 322.637L275.248 323.404L271.956 323.442L270.926 320.961L271.866 319.142L274.617 317.278V317.278V317.278" fill="black"/>
<path d="M117.349 37.6332L116.327 39.2642L118.169 41.1057L117.349 42.9471L120.01 46.4196L123.28 45.3974L127.571 44.9915L132.479 50.3054L135.749 59.0918L133.096 64.6086L136.771 63.9923L138.815 65.2174L139.018 67.8781L134.524 68.081L136.974 70.5313L140.041 71.1476L133.299 80.1369L132.479 85.6538L133.907 90.1484L132.885 92.8091L134.727 98.5289L138.199 102.415L139.221 102.212L141.469 101.595L141.672 104.865L143.1 106.909L145.753 106.706L147.797 99.1452L153.93 91.584L163.13 87.9086L168.85 80.7532L171.503 81.9784H177.02L181.515 77.4837L187.031 75.2364L187.648 71.764L184.175 68.6974L181.109 67.6752L179.47 63.3835L183.356 61.1361L189.489 64.4057L191.534 62.1583L188.264 60.3169L195.216 50.9142L193.991 46.8254L190.722 46.6225L191.947 42.9471L196.036 41.1057L204.416 33.7474L201.966 31.0942L192.563 31.9134L187.655 36.8215L190.519 30.4854L187.249 29.6661L185.408 32.9356L182.755 30.6883L175.396 31.5076L177.441 28.238L189.497 27.8322L186.43 23.7434L173.352 21.2931L168.038 22.1124L168.241 24.7731L162.724 22.9317L162.927 21.0902L159.041 21.9095L158.222 23.9539L162.311 25.3819L158.019 28.4485L154.953 24.976L150.661 23.7509L150.045 27.0204H145.753L144.114 23.548L137.372 22.5258L133.697 24.3672L133.494 26.8175L128.796 26.2012L125.933 27.4263L126.136 30.29V31.718L120.822 32.7402L118.372 31.1092L116.733 33.7624L119.183 36.4231L124.294 35.8068L124.7 37.4453L120.814 39.2868L117.349 37.6332V37.6332V37.6332" fill="black"/>
<path d="M133.704 69.5167L134.93 71.3582L134.313 73.6055H133.088L131.45 71.764L131.855 70.336L133.704 69.5167V69.5167V69.5167" fill="black"/>
<path d="M184.799 64.4058L188.272 65.428L188.069 68.2916L184.393 66.4501L183.574 65.428L184.799 64.4058V64.4058V64.4058" fill="black"/>
<path d="M168 468.247L170.879 464.407L182.071 458.649L183.987 454.493L188.783 453.531L193.262 447.773L197.742 447.45L198.704 442.971L202.545 440.092L205.746 441.054L215.021 438.175L217.261 440.415L221.418 440.738L225.258 438.822L248.288 438.499L256.601 440.738L267.153 438.499L270.671 438.822L271.633 435.62H275.15L279.946 440.738L288.905 434.981L298.819 432.102L302.336 434.342L302.659 429.863L307.778 429.224L313.212 431.779V434.335L326.967 440.092L330.807 439.769L332.408 441.685L327.929 446.804V450.321L332.085 452.561L333.047 450.321L351.92 442.963L365.675 441.685L368.553 443.286L379.429 444.887L381.985 445.849L385.502 443.933L390.621 443.61L395.416 447.127L395.739 450.968L406.615 448.728L408.216 449.367L408.855 452.884L418.769 456.086L421.97 453.846L422.294 456.725L425.811 457.048L430.607 460.889L435.086 458.972L438.927 459.296H441.806L443.722 458.972L444.045 464.091L450.442 467.932L168 468.247V468.247V468.247" fill="black"/>
<path d="M71.4108 468.247L81.6477 465.369L82.2866 462.49L93.1624 459.934L99.5587 461.535L113.629 455.778L113.306 449.705L109.149 443.309L110.111 441.708L108.51 437.551V433.072H111.066L109.465 429.87L120.98 419.956L120.656 424.436L118.417 425.075L116.177 428.915L118.417 429.877L116.177 433.079L113.621 432.44L112.344 435.319L112.667 439.16L116.508 438.837L119.063 442.354L120.025 446.834L125.144 453.23L125.467 461.227L123.55 462.189L125.151 466.346L124.189 467.947L71.4108 468.247V468.247V468.247" fill="black"/>
<path d="M64.0525 462.49L67.8932 461.851L69.4941 463.129L68.8553 464.73L68.5321 466.646L66.2923 467.608L64.6913 465.692H58.2951V464.414L61.1738 463.775L64.0525 462.49V462.49V462.49" fill="black"/>
<path d="M104.993 441.7L101.791 442.339L103.708 445.857L105.947 446.819L104.985 448.735V450.013L98.9048 451.614L99.5437 453.531L102.099 454.493L104.978 452.253L107.533 452.892L105.932 455.447L106.894 456.086L109.773 454.808L112.013 450.652L104.993 441.7V441.7V441.7" fill="black"/>
<path d="M98.2734 456.094L95.7179 458.334L97.9577 458.972L100.836 459.611L103.715 457.695L100.836 457.056L98.2734 456.094V456.094V456.094" fill="black"/>
<path d="M116.177 418.25L114.305 418.626L113.892 420.542L117.47 420.016L116.177 418.25V418.25V418.25" fill="black"/>
<path d="M119.198 415.296L116.951 415.725L117.379 417.461L120.115 417.363L119.198 415.296V415.296V415.296" fill="black"/>
<path d="M122.768 418.776L122.783 421.452L124.324 421.52L125.572 419.535L122.768 418.776V418.776V418.776" fill="black"/>
<path d="M123.513 411.313L121.889 411.951L121.476 413.485L122.881 413.996L125.241 412.372L123.513 411.313V411.313V411.313" fill="black"/>
<path d="M448.089 321.675L447.826 340.751L444.895 342.901L444.632 344.78L448.63 347.463L458.499 345.584H463.565L465.429 342.893L476.628 340.744L484.625 343.164L484.091 346.388L485.159 349.613L491.292 348.538L491.555 350.146L487.556 353.1L488.887 354.175L491.818 353.1L491.021 361.969L496.621 366.268L499.823 365.194L501.423 366.802L510.758 365.457L519.56 351.214L522.762 350.409L529.158 338.587L530.759 328.38L526.76 323.276L528.361 322.201L525.159 312.258L521.694 309.837L522.228 296.406L519.026 293.986L518.23 286.462H516.629L511.292 304.193L508.361 304.463L501.694 297.744L505.43 287.8L498.5 286.455L490.766 288.604L488.631 294.783L485.166 295.587L484.903 291.288L470.773 299.886L471.036 303.11L468.901 306.064H463.565L452.095 310.897L448.089 321.675V321.675V321.675" fill="black"/>
<path d="M419.009 238.69L418.799 240.403L423.902 248.979H425.39L436.026 266.77L440.28 267.198L442.407 260.983L439.002 258.84L438.363 255.413L419.009 238.69V238.69V238.69" fill="black"/>
<path d="M450.321 250.227L452.591 252.85L461.295 249.836L463.016 243.192L466.894 242.914L470.442 240.343L465.842 236.991L464.79 235.15L462.52 239.336L463.354 241.741L461.971 243.748L459.363 243.079L453.042 247.717L453.207 250.4L450.321 250.227V250.227V250.227" fill="black"/>
<path d="M462.069 239.952L459.904 242.576L461.678 243.132L462.678 241.734L462.069 239.952V239.952V239.952" fill="black"/>
<path d="M442.076 269.318L440.009 270.731L440.453 271.918L447.029 273.407L450.351 274L451.757 275.489L455.523 275.789L457.296 277.277L458.92 276.902L460.401 275.564L457.665 274.301L455.305 272.294L449.171 270.806L442.076 269.318V269.318V269.318" fill="black"/>
<path d="M463.572 275.789L461.949 276.684L462.911 277.728L465.271 276.834L463.572 275.789V275.789V275.789" fill="black"/>
<path d="M469.285 223.627L468.638 224.86L468.277 226.378L464.685 230.941L464.903 231.88L466.413 231.662L471.081 226.446L469.285 223.627V223.627V223.627" fill="black"/>
<path d="M447.082 203.063L445.286 203.567L443.993 205.16L445.068 207.257L446.646 207.4L448.442 205.807L448.871 203.71L447.082 203.063V203.063V203.063" fill="black"/>
<path d="M467.849 186.633L465.188 188.662L465.045 192.571L467.345 195.247L467.917 194.743L467.849 186.633V186.633V186.633" fill="black"/>
<path d="M344.058 375.521L343.946 378.745L348.41 379.783L349.44 377.129L347.839 377.588L345.779 378.046L345.208 375.626L344.058 375.521V375.521V375.521" fill="black"/>
<path d="M336.73 299.886L335.588 301.382L335.813 302.998L338.218 301.036L336.73 299.886V299.886V299.886" fill="black"/>
<path d="M332.499 302.427L330.785 302.539L330.672 304.035L331.815 304.268L333.528 303.464L332.499 302.427V302.427V302.427" fill="black"/>
<path d="M321.164 280.291L319.563 284.095L316.82 288.935L312.017 289.281L309.958 291.701L310.303 299.082L307.327 302.539L307.673 308.417L310.191 311.296L313.167 310.95L316.143 308.755L315.459 305.298L322.322 293.422L320.946 291.926L322.322 289.048L323.81 289.506L324.268 288.356L322.893 282.479L322.089 280.058L321.164 280.291V280.291V280.291" fill="black"/>
<path d="M310.183 279.021L310.529 280.171L312.017 280.404L312.588 278.908L310.183 279.021V279.021V279.021" fill="black"/>
<path d="M312.355 281.329L312.927 282.599H313.844L314.302 280.983L312.355 281.329V281.329V281.329" fill="black"/>
<path d="M328.718 269.333L328.259 270.257L329.515 271.295L330.432 270.257L328.718 269.333V269.333V269.333" fill="black"/>
<path d="M335.129 262.418L333.754 263.343L334.783 264.959H336.159L335.129 262.418V262.418V262.418" fill="black"/>
<path d="M335.7 266.454L334.783 267.492L335.467 268.529L336.723 268.762L336.835 266.567L335.7 266.454V266.454V266.454" fill="black"/>
<path d="M369.343 241.087L369.568 243.049L370.823 243.508L371.049 241.779L369.343 241.087V241.087V241.087" fill="black"/>
<path d="M370.944 245.236L370.831 247.656L371.748 248.115L372.552 246.499L370.944 245.236V245.236V245.236" fill="black"/>
<path d="M371.177 249.964L370.372 250.768L371.289 251.572L372.432 250.768L371.177 249.964V249.964V249.964" fill="black"/>
<path d="M156.065 163.115L155.043 164.145L156.877 165.174L157.08 163.739L156.065 163.115V163.115V163.115" fill="black"/>
<path d="M161.574 162.499L160.349 163.318L161.371 164.137L163.002 163.724L161.574 162.499V162.499V162.499" fill="black"/>
<path d="M162.386 165.377L161.777 167.023L162.589 168.053L163.611 167.234L162.386 165.377V165.377V165.377" fill="black"/>
<path d="M167.279 168.662L166.873 169.692L167.482 170.308L169.113 169.278L167.279 168.662V168.662V168.662" fill="black"/>
<path d="M182.777 177.696L181.965 178.726L182.777 179.756L184.002 179.139L182.777 177.696V177.696V177.696" fill="black"/>
<path d="M188.369 190.707L187.054 191.466L187.663 192.082L188.369 190.707V190.707V190.707" fill="black"/>
<path d="M183.799 190.85L182.168 191.263L182.98 192.496H184.205L183.799 190.85V190.85V190.85" fill="black"/>
<path d="M179.921 189.617L178.899 190.647L180.327 191.879L181.139 190.03L179.921 189.617V189.617V189.617" fill="black"/>
<path d="M167.279 218.374L165.851 219.193L166.873 220.012L168.098 219.396L167.279 218.374V218.374V218.374" fill="black"/>
<path d="M170.789 220.027L169.857 220.854L170.518 222.079L172.112 221.365L170.789 220.027V220.027V220.027" fill="black"/>
<path d="M168.752 222.35L167.557 223.064L168.842 224.785L169.857 224.251L168.752 222.35V222.35V222.35" fill="black"/>
<path d="M83.88 212.984L82.7526 213.45L83.1509 214.45L84.4738 213.586L84.2107 213.315L83.88 212.984V212.984V212.984" fill="black"/>
<path d="M85.7365 214.12L85.0751 215.525L85.8718 216.592L86.8639 215.728L85.7365 214.12V214.12V214.12" fill="black"/>
<path d="M87.9914 217.99L87.1946 218.727L87.7884 219.929L88.9158 219.599L87.9914 217.99V217.99V217.99" fill="black"/>
<path d="M87.9237 220.997L87.39 222.132L88.2544 223.064L89.3818 222.462L87.9237 220.997V220.997V220.997" fill="black"/>
<path d="M87.9913 223.868L87.0668 224.537L87.7959 225.875L88.991 225.206L87.9913 223.868V223.868V223.868" fill="black"/>
<path d="M86.8639 226.469L85.9996 227.333L86.3303 227.867H87.3901L87.7208 226.995L86.8639 226.469V226.469V226.469" fill="black"/>
<path d="M88.1191 229.077L87.3224 229.813L86.4581 229.948V231.016L88.0515 232.481L88.7129 231.414L89.1113 230.211L88.976 229.212L88.1191 229.077V229.077V229.077" fill="black"/>
<path d="M79.7085 211.248L77.7243 210.579L76.1309 211.579L76.9276 212.511L79.6409 212.909L79.7085 211.248V211.248V211.248" fill="black"/>
<path d="M64.541 206.979L63.2859 208.264L64.7214 208.851L64.9319 210.647L61.7526 210.925L62.0758 212.654L63.0002 212.721L63.5339 211.925L67.2469 212.045L67.9158 213.33L68.7726 212.323L71.2755 211.647L73.4777 212.113L73.7333 210.782L69.7648 208.189L67.1942 207.227L64.541 206.979V206.979V206.979" fill="black"/>
<path d="M73.7408 210.782L69.7647 208.182L67.8857 207.543L67.2543 212.053L67.9158 213.323L68.7801 212.323L71.298 211.654L73.4852 212.12L73.7408 210.782V210.782V210.782" fill="black"/>
<path d="M64.5335 206.979L67.1191 207.25L66.8109 210.422L66.5554 212.09L63.5414 211.925L63.0078 212.729L62.0833 212.661L61.7526 210.925L64.9319 210.662L64.7365 208.858L63.2783 208.257L64.5335 206.979V206.979V206.979" fill="black"/>
<path d="M107.443 381.955L105.466 381.737L103.497 383.06L104.925 384.608L107.443 381.955V381.955V381.955" fill="black"/>
<path d="M109.412 380.963L108.758 383.06L106.894 384.713L107.007 385.262L110.186 384.044L111.502 382.391L109.412 380.963V380.963V380.963" fill="black"/>
<path d="M181.409 88.1717L179.936 87.3374L177.952 88.5926L176.246 90.171L176.291 91.0504L178.501 91.3285L178.365 92.9069L177.584 93.696L177.772 94.2071L179.981 94.35V96.9054L183.161 97.4616L185.047 98.5289L187.167 98.6191L190.804 96.8077L193.616 93.0948L193.661 90.5844L191.954 89.1413L190.526 87.9312L189.88 88.3972L188.91 89.6524L187.806 89.5096L186.701 88.2995L185.273 88.4348L183.198 90.156L181.95 91.5013L181.259 90.9L181.214 89.4119L181.905 88.9459L181.409 88.1717V88.1717V88.1717" fill="black"/>
<path d="M242.966 40.557L241.726 39.3093L238.975 40.6472H233.925L233.128 43.5935L235.961 46.0964L237.202 45.916L238.975 42.8795L240.479 43.9543L239.411 46.0964L238.878 49.2231L240.118 51.1848L242.779 46.7202L246.236 42.5187L244.906 41.3612L242.966 40.557V40.557V40.557" fill="black"/>
<path d="M244.47 35.198L242.252 37.2499L243.583 39.3018H245.973L246.95 40.6397L249.874 42.158L253.241 40.1963L255.548 38.2345L254.752 36.6261L252.444 35.2882L250.761 36.8065L249.611 35.3784L248.724 35.4686L247.574 37.9715L245.89 36.2728L245.71 35.1154L244.47 35.198V35.198V35.198" fill="black"/>
<path d="M249.52 44.3978L247.747 46.0063L246.243 47.1638L246.95 48.4114L248.37 48.8549L250.678 47.7801L251.745 46.4422L250.768 44.8338L249.52 44.3978V44.3978V44.3978" fill="black"/>
<path d="M287.732 29.155L289.025 29.6736L288.116 31.237V33.4543L286.177 34.6268H284.11L282.945 33.1912L283.072 31.6278L283.982 30.4553H285.793L287.732 29.155V29.155V29.155" fill="black"/>
<path d="M292.648 27.7195V29.2828L293.941 30.3276L295.752 30.1998L297.308 28.7642V27.7195H295.887L294.722 28.1103L293.813 27.0656L292.648 27.7195V27.7195V27.7195" fill="black"/>
<path d="M300.029 27.8548L300.938 29.809L302.75 29.9368L304.042 29.4182L303.396 27.5918L301.712 27.2009L300.029 27.8548V27.8548V27.8548" fill="black"/>
<path d="M307.402 25.2467L305.982 24.9836L304.689 26.2914L305.335 27.464L305.726 29.2904L307.41 27.9901L307.801 26.5545L307.402 25.2467V25.2467V25.2467" fill="black"/>
<path d="M315.294 39.0688L314.903 40.8953L311.927 43.5034L305.583 44.9389L300.405 53.5449L299.495 56.0252L304.674 57.333L305.448 54.2063L307.004 49.381L311.017 47.2915L314.385 44.6834L316.842 43.6387H318.135V40.1211L315.294 39.0688V39.0688V39.0688" fill="black"/>
<path d="M298.601 58.1072L302.096 58.498L303.261 62.5417L306.237 65.6684L305.2 67.7579H303.389L301.705 65.8037L297.954 65.6759L296.399 63.5864V62.1509L298.729 61.497L298.601 58.1072V58.1072V58.1072" fill="black"/>
<path d="M353.221 13.6418L351.537 12.597H349.598L349.207 13.7696L347.14 14.9421L345.584 15.4607L345.329 17.024L348.951 17.2871L353.221 13.6418V13.6418V13.6418" fill="black"/>
<path d="M357.227 14.0326L356.317 15.9868L354.506 15.859L351.657 17.9485L350.883 20.5566H352.694L353.732 18.8579L356.189 20.6844L358.519 19.6396L360.203 18.204L359.557 15.9868L358.647 14.4234L357.227 14.0326V14.0326V14.0326" fill="black"/>
<path d="M360.985 15.4681L361.894 19.121L363.315 22.5108L364.87 19.7749L367.847 19.121V17.1668L365.908 15.7312L360.985 15.4681V15.4681V15.4681" fill="black"/>
<path d="M431.997 9.62064L434.019 11.3193L435.454 10.7255L435.875 8.3429L432.929 6.30603L430.99 7.58377L426.27 8.01219V10.1393L421.294 10.2219V13.7019L427.112 18.0312L428.63 16.9263L428.292 13.8673L432.005 12.9353L431.245 11.4922L429.9 10.1317L431.997 9.62064V9.62064V9.62064" fill="black"/>
<path d="M437.394 7.58373L438.739 10.1317L443.97 9.53792L445.406 7.66641L445.068 6.05044L443.632 5.45667L442.287 6.47886L438.408 7.32818L437.394 7.58373V7.58373V7.58373" fill="black"/>
<path d="M437.055 17.5201L434.44 16.8436L432.929 18.4596L432.253 20.6693L435.793 20.3311L438.491 18.9707L437.055 17.5201V17.5201V17.5201" fill="black"/>
<path d="M387.487 231.534L387.674 233.579L387.862 235.067L386.757 235.255L387.314 238.599L388.975 239.531L391.553 238.043L390.816 234.518L391.004 233.218L388.606 230.993L387.487 231.534V231.534V231.534" fill="black"/>
<path d="M41.9776 200.621V201.575L45.9762 201.65L47.8627 200.553L48.1559 201.357L52.0793 202.312L55.5668 205.461L54.7701 206.558L54.9129 207.806L57.8216 208.535L60.7303 207.22L62.0381 205.904L60.1516 204.95L50.4182 199.238L47.0059 198.869L41.9776 200.621V200.621V200.621" fill="black"/>
<path d="M56.0779 194.765L55.1308 194.472L55.0557 196.299L56.2207 197.471L57.0174 196.299L56.0779 194.765V194.765V194.765" fill="black"/>
<path d="M57.9644 197.622L56.6566 198.351L57.8893 200.109L58.5432 199.23L57.9644 197.622V197.622V197.622" fill="black"/>
<path d="M62.1809 198.937L60.798 198.862L60.9408 199.741L61.9555 201.207L62.8273 200.252L62.1809 198.937V198.937V198.937" fill="black"/>
<path d="M61.5271 197.186L59.2722 196.231L58.8363 193.961L59.7082 193.593L60.58 195.352L61.4519 196.013L61.5271 197.186V197.186V197.186" fill="black"/>
<path d="M59.3474 192.571L58.1824 192.278L57.9644 190.812L56.7318 190.376L57.5285 189.572L58.9791 190.083L60.0689 190.744L59.3474 192.571V192.571V192.571" fill="black"/>
<path d="M55.5668 210.143L52.9512 210.805V211.534L54.4769 212.413H56.0779L57.0926 211.241L55.5668 210.143V210.143V210.143" fill="black"/>
<path d="M22.5259 254.18L22.0599 256.247L21.1955 257.119L21.7893 258.187L23.315 257.585L24.0441 256.315L23.5781 254.977L22.5259 254.18V254.18V254.18" fill="black"/>
<path d="M29.11 26.9754L29.2753 29.9969L23.2775 36.2127L24.7807 41.2485L29.11 40.076L31.6129 36.3781L37.9414 34.0255L43.105 33.6873L39.1064 29.3204L37.1071 30.8312L35.6039 30.3276L34.7696 28.4786L32.9357 26.6296L29.11 26.9754V26.9754V26.9754" fill="black"/>
<path d="M36.9418 18.0763L35.6115 20.4289L42.1129 22.7814L44.4429 19.2564L45.4425 21.6089H47.1111L50.2754 18.0839L46.4422 17.0767L44.939 15.9042L42.9397 17.9185L36.9418 18.0763V18.0763V18.0763" fill="black"/>
<path d="M48.2761 22.7814L43.1125 24.961V26.6371L49.7794 29.155L48.2761 30.8311L49.2758 33.0108L53.4397 31.1619H56.9422L58.6108 33.8451L61.4444 30.989L60.7755 28.2982L58.4455 29.14L58.1147 25.7803L59.2797 23.766H58.1147L56.2808 24.9385L55.4465 25.6074L55.9501 27.96L54.6197 28.9671L52.6205 28.8018L52.1169 25.7803L48.2761 22.7814V22.7814V22.7814" fill="black"/>
<path d="M55.1083 17.5728L54.6047 19.2489L57.769 20.7596L60.099 19.4142L59.9336 18.407L55.1083 17.5728V17.5728V17.5728" fill="black"/>
<path d="M57.6036 14.7166L55.2736 15.5584L55.439 16.7309L60.6026 16.3926L60.4372 15.2201L57.6036 14.7166V14.7166V14.7166" fill="black"/>
<path d="M68.7726 17.5727L68.4419 18.7452L67.6076 19.9178V21.5939L70.7719 21.0903L74.1015 23.9464H75.2665V21.0903L71.9369 17.3923L68.7726 17.5727V17.5727V17.5727" fill="black"/>
<path d="M77.2733 20.9325L78.6037 22.4432L77.4387 24.4575L78.273 26.6372L81.9408 24.6229V23.1121L79.7762 20.5942L77.2733 20.9325V20.9325V20.9325" fill="black"/>
<path d="M82.1062 17.0691L82.2716 19.7523H86.7737L87.9387 20.7595L87.7734 21.932L83.7748 22.4356L86.6084 26.2989L90.4416 26.9678L95.7705 24.6153L88.1041 13.0254L85.7741 14.5361L85.9394 16.5505L83.2712 15.5433L82.1062 17.0691V17.0691V17.0691" fill="black"/>
<path d="M43.2779 36.0474L36.9493 37.7235L33.2814 40.9178L33.6121 44.4429L40.2789 46.4572L38.7757 49.8169L33.9428 46.7954L32.6125 49.3133L35.7768 51.493L35.6114 55.0181L40.4443 56.3635L46.2768 56.0252L47.2765 54.1763L51.6057 59.0467L54.6047 58.0396L55.1083 54.6798L57.2729 56.1906L57.6036 52.8309L54.9354 51.1548L55.1007 40.5796L52.7707 38.7306L50.2754 42.0903L43.2779 36.0474V36.0474V36.0474" fill="black"/>
<path d="M63.609 43.4357L61.4444 42.4286L60.2794 43.9393L62.6094 47.6372L62.7747 51.1623L67.7729 48.1408V43.7739L69.6069 41.925L67.7729 40.5796H64.774L63.609 43.4357V43.4357V43.4357" fill="black"/>
<path d="M74.2744 41.9249L70.7719 44.7811L71.6061 48.3061H73.7708L74.7704 46.4572L76.2737 47.9679L77.7769 47.8025L81.7755 44.4428L74.2744 41.9249V41.9249V41.9249" fill="black"/>
<path d="M73.9362 36.3781L73.1019 38.0541L76.7697 39.3995L77.7694 37.8888L73.9362 36.3781V36.3781V36.3781" fill="black"/>
<path d="M71.7715 29.9968L68.1037 30.5004L65.939 32.5147L69.9376 32.6801L68.7726 35.7016L69.6069 37.047L70.7719 36.8816L73.6055 32.3494L71.7715 29.9968V29.9968V29.9968" fill="black"/>
<path d="M78.1076 28.8243L76.1083 29.4933L76.439 32.1765L79.7687 34.3562L79.934 36.0323L78.9344 37.0395L79.438 40.3992L92.268 44.5932L95.7705 45.7657L99.273 42.7442L95.1091 39.3845L91.2759 40.3917L85.9469 39.8881L83.9477 37.8738L83.4441 32.3344L80.1144 30.6583L78.1076 28.8243V28.8243V28.8243" fill="black"/>
<path d="M88.6001 46.2918L84.9322 45.9536L80.6029 47.6297L78.2729 50.8165L78.9419 59.5503L86.1048 59.8885L92.9369 63.2482L97.7698 68.7876L101.438 68.6223L100.438 73.8234L97.1084 79.3628L93.4405 81.0389L90.7723 80.5353L89.4419 79.3628L87.4426 82.0461L88.2769 84.7293L91.1105 84.8947L94.613 83.2186L97.6119 90.9452L105.113 95.8156L110.277 89.2691L105.947 82.2189L108.45 79.3628L111.953 85.2404L118.281 79.701L117.116 77.1831L112.787 78.5285L109.788 70.2984L112.622 65.6008L106.954 59.5578L103.79 61.7375L100.791 55.1909L94.4627 56.0327L92.7941 48.1408L87.6305 51.6659L87.1269 56.0327H84.2934L84.6241 52.1695L88.6001 46.2918V46.2918V46.2918" fill="black"/>
<path d="M96.1012 49.3134L94.7709 50.6587L95.9359 52.5077L101.438 53.1766L97.9352 49.4787L96.1012 49.3134V49.3134V49.3134" fill="black"/>
<path d="M90.7723 30.3351V31.8458L87.1044 32.6876L88.1041 34.3637L92.268 36.0398L96.9355 36.5434L100.265 38.8959L103.595 37.047L101.265 34.6944H104.264L106.098 32.6801L110.6 32.0112V31.004L108.097 29.3279L108.428 27.4789L115.425 28.6514L125.76 24.6228L121.927 23.4503L122.926 22.1049H130.923L132.254 20.7595L116.087 15.0473L112.253 13.7019L108.089 16.7233L103.422 12.8601L100.919 12.6947L100.415 15.8891L97.2512 13.0329L93.5833 14.2054L94.2523 16.0544L99.7541 17.2269L99.4234 19.9102L102.422 21.7592L109.758 19.9102L109.923 22.4281L103.926 25.2842L100.258 22.4281L96.928 22.7663L100.258 27.4714L98.5891 28.3132L96.0862 26.1335L94.2523 27.3061L95.9209 30.4929H98.7544L98.0855 33.5144L95.7555 33.1762L92.7566 29.9818L90.7723 30.3351V30.3351V30.3351" fill="black"/>
<path d="M75.9205 76.5518L72.7411 80.5503L72.5457 84.9548L75.3267 83.3539H78.7014L81.084 85.5561L83.2712 83.7522L75.9205 76.5518V76.5518V76.5518" fill="black"/>
<path d="M114.636 128.563L106.691 136.17L107.488 137.974L117.214 141.574L118.605 139.176L117.808 135.178L114.628 135.576L112.84 133.577L115.816 130.578L114.636 128.563V128.563V128.563" fill="black"/>
<path d="M-5.09591 36.5735L-3.60019 38.8358L-2.84858 41.8573L0.894449 42.7968L3.51758 39.9708L5.7649 41.1057L12.1311 41.6694L16.6257 39.7829L17.3773 46.0062H20.0005V43.3681L22.6236 43.556L29.1776 51.2901L33.4844 53.9282L31.2371 57.5134L32.1766 58.4529L40.5871 60.1516L40.775 63.9247L43.0224 64.3005L43.5861 58.6408L47.1412 57.7013L49.7643 61.6623L55.3789 64.3005L58.1899 64.8642L60.0614 62.6018L60.2493 59.0166L63.6165 56.9422L64.7365 59.9637L61.7375 65.2475L62.1133 67.8857L63.7969 65.2475L67.1642 62.226L67.3521 58.265L65.4805 55.2436L66.0443 52.7933L70.5389 50.5309L72.5983 52.0417L72.9741 65.2475L76.1535 62.4215L78.025 63.5564L75.4018 68.0811L78.7691 68.8327L83.6395 61.2865L87.7584 65.6233L86.0747 73.3574L81.9559 75.6198L78.025 73.7332L70.9147 75.244L71.6663 77.6942L69.7948 80.7157L63.9924 82.0386L57.4383 87.1345L51.6358 94.8686L50.8842 97.3188L54.8152 98.8296L56.3109 102.603L61.7375 108.074L70.351 111.848L68.4795 120.521L68.2916 122.971L70.5389 124.482L73.5378 120.521L73.9136 112.975L78.5962 112.787L80.8435 108.45L81.2193 101.851L87.2097 90.156L94.6957 92.7941L98.6267 98.2659L96.9431 103.738L99.942 105.436L107.24 100.528L109.3 113.922L116.042 122.032L116.229 126.181L108.743 128.067L105.188 131.84L97.7022 130.142L93.9592 129.954L87.4051 135.05L91.336 134.11L96.2065 133.171L97.146 134.306L95.8382 138.455L96.0261 142.228L98.2734 143.738L100.521 143.175L101.648 141.476H103.144L100.709 146.001L96.0261 146.189L93.9667 149.21H91.3435L90.5919 146.948L94.335 143.175L89.8403 144.685L89.6374 138.274L88.3446 137.523L84.4137 139.221L84.0379 142.431H75.0486L67.3746 147.714L57.0775 151.112L55.9576 149.601L61.1437 141.859L58.1974 139.026L56.3259 135.433L52.5152 132.524L48.4265 132.186L41.0982 127.053L-12.0483 118.319L-12.9277 114.719L-17.7982 110.194V106.421L-17.0466 103.024L-17.4224 101.137L-19.2939 99.2505L-19.6697 96.229L-14.7992 92.8317L-17.7982 76.6119L-21.917 76.424L-25.66 71.516L-5.09591 36.5735V36.5735V36.5735" fill="black"/>
<path d="M-12.2062 119.01L-12.9578 122.032L-15.5809 120.333H-16.8887L-17.6403 123.543L-26.8175 144.107L-24.3823 162.025L-21.3833 163.536L-20.8196 168.444H-14.6414L-8.65102 172.969L3.14178 174.104L4.44959 180.139L6.32111 181.462L8.94424 178.824L11.0037 179.763L12.8752 188.437L16.0545 190.511L18.6776 185.603L26.7274 179.756L31.9661 182.206L36.4608 182.582L36.6487 179.756L46.0063 179.944L47.8778 182.018L48.2536 186.731L47.1337 189.369L48.4415 193.894H51.2525L54.0636 189.557L52.9437 187.482L51.8238 182.958L53.5074 177.862L61.1813 171.263L66.9838 169.564L66.2322 164.092L74.2819 155.411L82.3317 154.088L81.0239 149.571L88.8858 145.046V139.011L88.1342 138.635L85.3231 139.575L84.9473 143.272L75.6048 143.385L68.2841 148.248L56.7919 152.006L54.958 149.759L60.1742 141.867L57.5961 139.409L55.8449 136.072L52.2146 133.156L48.2686 132.825L40.8126 127.737L-12.2062 119.01V119.01V119.01" fill="black"/>
<path d="M22.4582 219.11L26.9153 222.372L31.4099 216.788L30.6433 215.63L29.11 215.578V212.308L27.96 211.609L24.48 212.646L25.8104 215.713L22.4582 219.11V219.11V219.11" fill="black"/>
<path d="M31.9811 217.051L38.926 216.788L40.9855 219.238L39.7002 218.945L37.2274 219.05L33.9955 222.087L32.6125 225.161L31.703 224.68L31.6955 221.312L29.6962 219.975L31.9811 217.051V217.051V217.051" fill="black"/>
<path d="M27.5466 222.68L31.0792 224.439L31.0266 221.651L29.2152 220.546L27.5466 222.68V222.68V222.68" fill="black"/>
<path d="M39.6401 219.554L41.2861 219.884L41.3387 223.259L39.4221 228.731L34.2585 228.22L33.1086 225.582L34.6419 222.38L37.5506 219.674L39.6401 219.554V219.554V219.554" fill="black"/>
<path d="M39.3695 229.227L40.4142 231.271L41.2636 232.399L40.1211 235.788L37.9414 234.255L34.3788 230.993V228.836L39.3695 229.227V229.227V229.227" fill="black"/>
<path d="M41.7822 232.707L40.6848 236.134L44.3076 237.074L46.5549 237.517L46.9382 234.864L49.3509 233.646L51.493 234.751L52.3348 236.097L53.357 235.976L54.1612 233.534L51.4855 232.429L49.4561 231.324L47.4268 232.707L45.0141 233.924L42.5488 232.932L41.7822 232.707V232.707V232.707" fill="black"/>
<path d="M66.6906 225.318L65.1423 225.161L54.9053 233.601L53.823 236.57L52.425 236.728L53.0489 243.29L49.4787 252.046L53.357 255.33L58.3252 255.646L61.7375 260.652L66.6982 260.81L66.5403 264.56H68.3968L70.4111 257.683L68.5471 255.338L69.0131 250.964L72.8914 250.648L72.4254 240.486L63.7368 237.675L61.7225 232.203L66.6906 225.318V225.318V225.318" fill="black"/>
<path d="M64.2329 229.933L64.5636 231.88L67.0063 232.654L67.5625 229.069L70.1406 226.401L72.7186 229.422L78.6488 231.038L83.6696 229.986L87.0894 234.203L89.6675 235.819L86.8414 240.125L87.7884 243.387L86.1725 245.387L84.4964 246.792L80.8661 244.966L80.0318 245.808V248.408L82.685 249.671L80.7308 251.783L78.7766 253.895L76.1986 253.684L73.6055 250.836L73.0568 240.118L64.2028 237.096L62.5944 232.384L64.2329 229.933V229.933V229.933" fill="black"/>
<path d="M90.2311 236.104L95.6578 241.02L93.5007 243.515L93.3278 244.996L96.1614 247.919L96.0937 250.731L91.1631 252.61L88.2093 248.618L88.8407 243.823L87.5779 240.253L90.2311 236.104V236.104V236.104" fill="black"/>
<path d="M96.3042 241.373L97.8375 242.778L100.213 241.305L102.377 241.373L102.099 242.215L101.19 244.109L101.047 248.821L96.7251 250.58L96.9355 247.559L94.147 244.958L94.2898 243.62L96.3042 241.373V241.373V241.373" fill="black"/>
<path d="M103.069 241.869L107.466 244.612L105.166 249.182L104.331 250.234L101.889 248.829L101.956 243.906L103.069 241.869V241.869V241.869" fill="black"/>
<path d="M49.0052 252.429L45.45 254.639L45.1945 257.916L44.4805 258.991L46.7203 261.14L45.7507 262.2L45.9762 264.906L49.9823 265.861L56.0478 258.683L56.0328 256.18L53.124 255.992L49.0052 252.429V252.429V252.429" fill="black"/>
<path d="M45.1193 262.704L43.6612 264.177L43.7589 266.529L56.4912 289.739L69.7121 298.262L71.7565 294.835L72.245 287.296L71.1777 282.599L67.5775 276.526L65.4354 277.21L64.4658 278.285L60.1892 273.384L61.2565 267.604L66.2171 264.372L65.8263 261.336L60.7754 261.14L58.1523 256.736L56.6942 256.247L56.7919 258.893L50.2829 266.627L45.42 265.455L45.1193 262.704V262.704V262.704" fill="black"/>
<path d="M70.4337 280.194L76.6194 277.495L78.6638 277.691L80.0242 283.373L89.4495 286.507L91.0053 291.31L94.8911 291.799L96.5447 295.91L95.3797 299.63L89.0586 300.119L86.7286 306.094L81.768 305.997L80.2121 305.704L77.3485 308.484L75.9355 308.349L71.0725 297.083L72.4179 295.068L72.8914 287.101L71.6888 282.358L70.4337 280.194V280.194V280.194" fill="black"/>
<path d="M95.2745 300.277L96.928 302.081L96.7326 305.899L101.498 305.606L105.098 310.213L104.805 314.325L102.475 317.85L97.7097 318.045L97.5143 316.083L98.8747 312.851L94.2072 309.913H90.3213L87.4051 306.778L89.5246 300.72L95.2745 300.277V300.277V300.277" fill="black"/>
<path d="M101.738 324.644L100.198 326.29L100.836 335.144L105.677 336.55L111.832 330.379L101.738 324.644V324.644V324.644" fill="black"/>
<path d="M105.579 314.324L107.037 315.692L101.498 323.923L99.5511 326.08L100.228 335.482L104.504 340.676L100.912 346.944L98.1907 348.117H95.079L95.9509 353.01L91.088 354.679L92.253 358.79L89.3367 368.095L92.9369 371.034L90.9903 375.829L87.6832 381.023L89.4344 384.645L85.1577 385.329L81.6552 381.023L81.069 367.606L75.6273 344.817L77.2733 336.85L73.7708 326.666L76.1008 313.445L78.2429 310.897L77.7168 308.965L80.4677 306.455L86.6008 306.876L90.0282 310.536L93.9892 310.604L98.0479 313.084L96.8528 315.88L97.1385 318.706L102.888 318.436L105.579 314.324V314.324V314.324" fill="black"/>
<path d="M90.2236 386.404L87.0142 393.454L92.5536 394.041L92.6513 389.343L90.2236 386.404V386.404V386.404" fill="black"/>
<path d="M93.1399 389.929L93.3353 394.236L96.6424 393.943L99.461 392.079L94.6957 391.102L93.1399 389.929V389.929V389.929" fill="black"/>
<path d="M89.1338 385.299L86.7211 387.968L86.428 391.102L81.7605 388.456L76.7998 381.308L75.3417 378.76L77.3861 376.115L77.1907 372.785L74.8607 371.808L73.0117 370.44L73.4025 368.576L75.8302 367.892L76.3188 357.121L72.5307 354.964L70.0579 298.901L70.6967 297.789L75.5371 308.951L77.0854 308.981L77.589 310.762L75.5296 313.257L73.162 326.689L76.5292 337.031L74.9734 344.863L80.4602 367.892L81.0389 381.361L84.9699 385.908L89.1338 385.299V385.299V385.299" fill="black"/>
<path d="M73.1169 357.121L72.1473 358.587L72.6359 361.135L73.6055 361.233L74.094 358.001L73.1169 357.121V357.121V357.121" fill="black"/>
<path d="M112.171 329.845L116.868 320.811L117.041 313.22L125.805 307.568H130.713L134.569 301.036L135.268 288.499L133.689 285.147L142.979 276.669L143.333 267.311L130.713 261.133L115.47 256.368L108.285 255.661L110.217 251.602L109.69 245.424L108.12 244.906L105.797 249.52L104.579 251.046L101.453 249.663L90.9377 253.369L87.4352 248.957L87.9989 244.349L84.6918 247.717L81.0389 245.747L80.6706 246.266L80.6782 247.867L83.8274 249.558L79.0998 254.541L76.1159 254.511L73.0944 251.437L69.6745 251.542L69.2536 255.195L71.2153 257.578L68.9004 264.996L66.1946 265.207L61.8878 267.927L60.8356 273.271L64.5711 277.27L65.2551 276.496L67.8782 275.789L70.118 279.562L76.5292 276.812L79.0171 276.954L80.7308 283.02L89.8779 285.921L91.4563 290.761L95.3496 291.227L97.2061 295.85L95.9509 299.961L97.5894 302.111L97.3489 305.313L101.738 304.899L105.759 309.98L105.444 313.55L107.826 315.565L102.114 324.216L112.171 329.845V329.845V329.845" fill="black"/>
<path d="M29.7338 212.255L29.6962 214.999H30.3276L32.4772 210.985H31.0191L29.7338 212.255V212.255V212.255" fill="black"/>
<path d="M490.781 54.8151L492.104 59.3849L494.749 60.144L497.395 55.9575L495.884 53.1014L496.448 50.6286H500.416L499.469 52.5302L499.845 59.3849L494.178 73.4701L494.742 76.5141L494.554 81.6552L505.129 97.0708L507.203 97.642L507.391 85.0825L509.466 83.181L507.196 78.2353L509.082 76.1383L504.926 70.6215L502.656 70.8094L501.905 61.6773L507.76 60.1515L508.135 57.4833L511.157 56.7242L512.856 58.25L514.93 49.877L518.515 43.7889L521.349 42.2631L523.807 42.451V39.5949L519.838 38.8358L514.359 34.266L517.004 31.222L514.735 26.0809L516.621 24.1793L518.891 27.2234L524.558 29.3204L530.789 29.8916L531.548 27.2309L528.339 23.999L531.924 19.0533L523.799 16.1972L521.725 20.3837L519.079 16.9563L504.159 11.8153L489.992 14.2881L487.917 15.4306V16.573L490.939 18.0988L490.563 21.714L485.083 19.4291L472.998 24.1869L470.923 19.8125H462.61L458.83 23.811L445.421 20.767L433.147 23.2398L431.636 27.043L433.523 27.6142L433.335 30.4703L421.437 31.8007L422.196 35.6039L411.238 33.7023L413.883 28.7567L402.737 28.1854L403.684 33.3265L400.099 35.0401L397.077 32.184L384.803 34.281L380.083 38.6554L379.895 41.3161L376.874 41.504L376.498 38.46L386.134 30.087V24.3748L379.903 22.6611L371.778 25.3218L368.381 21.8944H366.87L364.983 25.6976L366.494 27.4113L355.723 33.3114L346.471 40.354L340.804 48.1558V51.3877L346.847 53.8605L343.825 56.1454L337.407 53.8605L334.761 56.1454L330.792 51.5756L330.033 53.2893L334.378 66.9912L335.513 67.3745L338.534 65.8488L340.045 66.9912V69.464L337.211 68.3216L335.513 69.6519L336.647 72.1247L335.7 78.5961L329.845 79.1673L329.47 77.0703L332.867 74.9733L333.626 69.2611L329.845 64.3155L328.523 55.7546L322.48 54.8L321.916 57.8441L323.051 59.3699L320.593 61.4669L321.54 67.1791L325.125 68.7049L325.884 72.8914L322.292 70.6065L313.039 68.8928L311.904 71.9368L304.539 74.5975L303.404 72.696L293.768 78.0249L293.58 81.6401L289.799 82.2114L290.934 79.5507V76.89L287.154 75.5596L284.696 76.5141L286.77 80.5127L288.281 83.1734V85.2704L285.448 84.6992L284.884 84.128L282.05 87.172L283.561 89.8327L277.142 89.6448L279.217 92.313L278.653 93.4555H275.256L272.798 91.7418L272.234 86.9841L268.266 85.4583V83.5568L276.579 85.2704L281.111 85.6538L282.997 82.7976L281.299 79.7536L269.213 74.9959L265.041 76.0331L263.613 77.2582L264.057 80.0768L265.83 80.385L265.417 84.8195L270.889 97.6721L266.935 103.94L266.665 105.354L268.672 106.767L266.86 107.962L265.658 107.984L265.883 113.509L267.544 115.861L267.567 118.146L269.694 118.341L272.948 119.582L276.391 124.317L276.428 125.564L275.308 127.481L277.879 127.338L280.382 128.06L283.764 132.848L292.092 133.607L291.731 139.304L288.86 141.762L289.454 142.724L286.62 145.768L285.868 148.624L287.567 151.097L293.046 152.998L295.316 151.668L309.86 157.185L310.424 155.659L307.402 152.803V149.188L305.516 148.616L305.891 145.572L308.913 141.957L303.494 137.898L303.87 132.254L309.665 128.443L316.467 128.826L317.602 130.923L324.592 131.307L329.695 128.451L327.049 125.594L327.613 120.266L340.834 113.794L351.003 118.379L354.401 115.335L364.412 124.85L371.966 124.091L374.611 126.752L381.789 127.511L386.509 121.04L392.552 123.708L395.762 124.279L398.971 121.423L396.138 119.521L398.595 115.718L405.585 118.003L407.096 121.047L410.118 121.235L412.004 119.905L417.108 119.717L417.671 121.047L423.526 121.431L427.495 117.244L435.62 118.199L438.078 117.244L438.829 112.674L436.371 107.157L438.829 105.06H446.571L453.937 113.817L463.377 119.146H466.21L466.586 116.861L469.984 114.764L470.359 127.135L467.338 127.323V130.367L469.037 132.464L468.721 135.185L469.976 135.704L470.735 133.802L471.87 134.185L472.622 134.945L476.019 134.185L479.416 124.287L479.792 111.915L475.448 102.016L469.969 95.3571L467.323 95.7404V97.8374L460.904 95.3646L463.362 90.0357L465.436 75.9504L474.125 73.2897L478.281 70.629H482.814L481.679 72.1548L482.814 74.0564L486.782 69.8699L489.052 70.0578L488.676 67.585L485.083 66.8259L487.541 57.8817L490.781 54.8151V54.8151V54.8151" fill="black"/>
<path d="M379.865 127.827L377.265 134.366L373.679 134.178L369.899 142.453L373.108 146.542L366.494 155.674L363.097 155.103L360.827 157.959L361.39 159.673L364.036 159.861L365.359 162.905L368.005 163.476L376.13 173.946V179.275L380.098 181.747L384.442 180.988L389.922 184.22L396.536 186.122L399.745 185.739L403.338 185.355L410.892 180.41L413.349 180.793L414.289 183.025L416.371 183.649L419.205 187.836L417.318 192.022L418.453 194.878L421.662 196.021L422.226 199.448L426.007 199.831L426.57 198.118L432.05 195.261L435.447 195.449L439.415 199.824L442.061 198.681L443.76 198.869L444.519 200.966L445.842 201.154L447.728 198.493L455.282 195.637L462.084 187.452L464.354 179.65L464.166 174.509L461.332 173.938L463.031 172.037L462.655 168.993L455.477 161.762V158.147L457.552 155.486L459.626 154.532L459.814 152.435H454.523L453.576 155.291L451.118 154.719L448.097 151.488L449.983 146.542L452.629 143.686L455.087 143.874L454.711 148.248L456.034 149.391L459.243 146.159L460.378 145.971L460.002 143.498L463.024 139.883L465.293 140.071L466.616 135.884L468.165 135.065L468.322 132.457L466.819 130.878L466.691 126.759L469.585 126.572L469.397 115.951L467.368 117.169L466.609 119.89L463.219 119.882L453.395 114.358L446.3 105.805L439.1 105.729L437.266 107.323L439.596 112.659L438.784 117.665L435.883 118.868L434.252 118.74L434.132 123.693L435.83 124.076L438.852 122.746L442.82 124.647V126.549L439.987 126.737L437.717 131.683L435.642 131.87L428.277 141.574L420.535 145.001L415.244 145.384L411.658 142.912L406.555 145.58L401.076 143.866L399.753 140.251L390.5 139.68L385.592 131.69H383.518L381.849 127.985L379.865 127.827V127.827" fill="black"/>
<path d="M382.421 127.902L386.795 122.1L392.049 124.527L395.619 125.482L399.993 121.468L397.024 119.281L398.979 116.523L404.811 118.582L406.833 121.897L410.486 121.994L412.395 120.574L416.326 120.416L417.183 121.874L423.714 122.205L427.848 117.988L433.568 118.59L433.237 124.332L435.74 124.903L438.814 123.505L442.069 125.114L441.993 125.925L439.633 125.993L437.176 131.149L435.267 131.337L427.841 141.04L420.257 144.385L415.514 144.753L411.576 142.213L406.54 144.903L401.579 143.363L400.174 139.762L390.779 139.101L385.968 130.946L383.631 130.796L382.421 127.902V127.902V127.902" fill="black"/>
<path d="M460.949 146.016L462.332 146.595L462.753 151.435L465.496 151.593L468.082 148.564L467.188 147.767L467.293 144.52L469.668 141.649L468.458 139.469L469.247 138.567L469.683 136.313L468.307 135.689L467.135 136.282L465.684 140.687L463.339 140.484L460.626 143.686L460.949 146.016V146.016V146.016" fill="black"/>
<path d="M309.432 141.769L312.513 140.454L315.956 140.334L316.196 145.595H314.182L312.641 148.105L314.655 151.45L317.624 153.126L317.895 155.043L318.985 154.682L319.992 153.487L321.653 153.848L322.487 155.524H324.622V153.374L323.314 149.548L322.72 146.444L326.516 144.768L331.619 145.602L334.821 148.827L342.059 148.113L346.095 153.848L350.838 154.088L352.146 151.939L353.807 151.578L354.047 149.188L356.535 149.067L357.843 150.623L359.151 147.519L370.417 149.075L372.311 146.565L369.11 142.619L373.379 133.299L376.821 133.539L379.196 127.804L374.454 127.323L371.725 124.693L364.209 125.564L354.528 116.207L351.116 119.236L340.766 114.538L328.072 120.754L327.718 125.174L330.687 128.639L324.9 131.908L317.391 131.743L315.82 129.435L309.935 129.112L304.358 132.697L304.238 137.598L309.432 141.769V141.769V141.769" fill="black"/>
<path d="M322.329 156.027L321.863 158.004H318.744V160.68L322.096 162.89L321.059 165.919V167.317L322.449 167.55L324.298 165.107L328.462 164.175L337.361 167.55L337.474 169.992L342.442 170.458L347.989 164.633L347.298 162.769L343.6 161.958L333.198 155.201L332.732 152.758H328.801L327.064 156.02H325.328L322.329 156.027V156.027V156.027" fill="black"/>
<path d="M348.688 164.648L351.003 164.769V160.808L348.809 159.53L352.506 154.87H354.01L355.513 156.621L359.444 155.11L354.01 153.246L353.799 152.119L352.506 152.435L351.236 154.644L345.757 154.464L341.736 148.774L334.671 149.473L331.303 146.136L326.643 145.347L323.261 146.722L325.223 153.246L325.245 155.441L326.674 155.471L328.425 152.134L333.085 152.194L333.776 154.757L343.765 161.386L347.629 162.273L348.688 164.648V164.648V164.648" fill="black"/>
<path d="M349.643 159.222L352.732 155.388H353.897L354.303 156.245L352.875 157.282V158.139L353.814 158.816L358.331 159.086L359.805 158.455L360.474 158.59L360.925 160.033L363.608 160.304L364.953 163.145L364.547 164.002L364.014 164.047L363.48 162.965L362.315 162.874L360.301 163.145L360.165 165.039L358.151 164.904L358.241 162.514L356.768 161.071L354.528 162.92L354.573 164.137L352.604 164.814H351.439L351.529 160.62L349.643 159.222V159.222V159.222" fill="black"/>
<path d="M354.619 149.729L354.386 151.63L354.573 152.803L361.112 154.998L355.37 157.313L354.716 156.771L353.476 157.568L353.536 158.004L354.198 158.305L358.226 158.41L360.271 157.794L362.894 154.487L366.178 155.058L370.139 149.571L359.542 148.128L358.076 151.683L356.227 149.699L354.619 149.729V149.729V149.729" fill="black"/>
<path d="M337.564 170.654L338.76 180.019L341.736 180.673L342.014 182.356L339.879 184.138L343.855 187.347L351.582 184.566L352.198 181.274L357.061 178.237L358.925 171.202L360.316 169.707L358.873 167.196L363.578 164.288L362.976 163.446L360.804 163.581L360.609 165.58L357.693 165.55L357.64 162.882L356.701 161.762L355.122 163.198L355.167 164.513L352.785 165.415L348.388 165.137L342.675 171.12L337.564 170.654V170.654V170.654" fill="black"/>
<path d="M344.336 187.783L346.291 190.684L346.103 192.18L343.502 193.21L343.314 195.645H346.291L347.313 194.803H352.98L358.091 199.298L358.745 197.141H362.556L362.646 194.427L358.745 190.684L359.579 188.625L363.578 188.347L368.967 177.11L365.99 174.773L364.878 170.842L372.124 170.188L367.847 164.1L365.569 163.483L364.637 164.611L363.938 164.663L359.662 167.377L361.06 169.722L359.481 171.405L357.527 178.613L352.694 181.702L352.04 185.077L344.336 187.783V187.783V187.783" fill="black"/>
<path d="M380.301 235.262L383.743 233.579L385.788 226.183L385.698 217.103L397.408 204.461V201.462L399.82 200.523L399.73 197.058L397.13 192L398.618 189.286L401.872 192.285L406.051 192.473V194.157L404.751 195.562L405.029 196.314L407.261 196.404L407.727 198.929H408.381L410.057 195.93L410.892 188.069L413.68 186.099L413.77 183.386L412.658 181.229L410.892 181.139L403.977 185.709L404.413 188.647L399.557 188.632L397.844 186.535L396.912 186.656L397.227 189.572L386.727 188.82L380.218 185.919L379.873 182.349L375.536 179.658L375.483 174.119L372.507 170.714L365.667 171.368L366.411 174.344L369.764 177.057L363.969 188.918L360.09 189.211L359.451 190.639L363.27 194.172L363.082 197.742L359.181 197.682L358.76 199.456L361.999 199.313L362.09 200.718L359.767 201.936L361.255 204.747L364.134 205.686L365.9 204.379L366.735 202.041L367.757 201.575L368.967 202.793L368.599 205.792L367.764 207.197L367.952 209.632L380.301 235.262V235.262V235.262" fill="black"/>
<path d="M380.459 182.311L380.805 185.521L386.878 188.272L396.611 188.993L396.243 186.641L389.741 184.852L384.225 181.567L380.459 182.311V182.311V182.311" fill="black"/>
<path d="M398.656 186.46L399.821 188.054L403.759 188.084L403.361 185.904L398.656 186.46V186.46V186.46" fill="black"/>
<path d="M398.783 190.241L397.799 192.022L400.354 196.877L400.429 200.666L400.895 201.68L403.894 201.733L405.593 200.102L406.825 200.846L407.073 203.153L408.058 202.537L408.118 199.591L407.291 199.493L406.773 196.99L404.683 196.915L404.165 195.525L405.442 193.818L405.465 192.977H401.752L398.783 190.241V190.241V190.241" fill="black"/>
<path d="M424.24 228.227L422.158 224.89L423.669 222.771L422.241 220.147L420.896 219.892L420.64 215.487L418.626 211.587L418.04 212.519L416.694 214.803L415.011 215.059L414.169 213.954L413.748 210.985L412.485 208.61L407.344 203.762L408.607 202.928L408.84 199.418L410.719 196.261L411.531 188.407L414.251 186.55L414.342 183.687L415.973 184.228L418.543 187.948L416.634 192.037L417.919 195.246L421.099 196.494L421.677 199.989L425.947 200.651L424.767 202.687L419.385 204.807L418.799 208.279L422.752 213.36L422.918 216.074L421.993 217.006L422.076 217.855L425.022 222.177L425.105 226.664L424.24 228.227V228.227V228.227" fill="black"/>
<path d="M424.684 203.289L427.119 206.423V210.234L427.961 210.655L431.832 208.791L432.591 209.046L437.213 214.383L437.048 218.028L435.537 217.772L434.192 216.923L433.185 217.006L431.418 219.967L431.756 221.575L433.185 222.335L433.102 224.116L432.095 224.627L428.645 222.252V220.132L427.217 220.05L426.63 220.982L426.33 230.467L428.562 234.541L432.516 238.351L432.35 239.456L430.246 239.374L428.314 236.495H426.292L423.767 234.458L423.008 232.339L424.098 230.557L424.473 228.949L425.661 226.844L425.608 222.004L422.707 217.81L422.587 217.299L423.526 216.352L423.308 213.022L419.445 208.129L419.896 205.311L424.684 203.289V203.289V203.289" fill="black"/>
<path d="M426.698 237.096L428.209 240.486L428.547 244.891L430.569 248.025L435.447 250.986L437.296 251.159L436.958 248.107L435.357 244.214L433.012 239.231L432.816 240.103L429.99 239.975L427.961 237.059L426.698 237.096V237.096V237.096" fill="black"/>
<path d="M432.538 225.086L435.612 228.37L441.332 224.131L441.836 217.442L438.882 219.479L437.349 218.622L435.267 218.344L434.102 217.524L433.538 217.554L432.012 220.057L432.26 221.215L433.808 222.079L433.621 224.432L432.538 225.086V225.086V225.086" fill="black"/>
<path d="M428.773 197.622L426.954 198.546L425.443 202.951L427.968 206.167L427.548 209.723L427.968 209.895L432.17 207.859L437.807 214.157L437.672 218.126L438.897 218.787L441.926 216.329L441.678 214.383L432.937 206.077L433.019 204.807L434.109 204.048L433.35 201.928L429.735 201.335L428.773 197.622V197.622V197.622" fill="black"/>
<path d="M435.981 228.829L436.875 230.234L437.04 231.843L439.393 232.098L442.249 228.287L444.94 227.528L446.368 223.635L445.699 217.366L442.925 213.556L440.002 211.218L436.281 204.83L438.949 200.365L435.131 195.983L432.072 195.848L429.321 197.328L430.141 200.869L433.808 201.515L434.793 204.243L433.5 205.085L433.583 205.762L442.189 214.18L442.527 216.652L442.009 224.469L435.981 228.829V228.829V228.829" fill="black"/>
<path d="M293.475 153.449L295.933 156.659L298.999 158.072L300.886 158.064L304.125 157.185L304.937 155.915L295.354 152.329L293.475 153.449V153.449V153.449" fill="black"/>
<path d="M304.193 157.756L307.8 162.461L306.741 163.701L304.185 163.258L301.013 160.417L301.186 158.553L304.193 157.756V157.756V157.756" fill="black"/>
<path d="M305.463 156.125L304.704 157.418L308.244 162.063L309.477 161.664L311.506 163.791L312.385 160.063L314.588 160.417L314.497 159.349L310.875 156.178L310.183 158.042L305.463 156.125V156.125V156.125" fill="black"/>
<path d="M304.14 163.814L303.223 164.769L303.313 166.279L304.456 167.88L308.507 172.315L307.891 174.089H307.184L306.831 175.862L309.123 178.794L311.235 178.974L315.467 184.829L317.842 185.01L319.691 186.34L319.781 189.001L327.094 193.262H329.823L331.499 191.842L333.611 191.752L334.844 194.593L342.743 195.69L342.976 192.789L345.592 191.842L345.712 190.804L343.63 187.963L338.992 184.235L341.428 182.018L341.255 181.041L338.203 180.568L336.91 170.27L336.76 167.903L328.485 164.739L324.817 165.565L322.765 168.083L320.946 167.963L320.42 168.406L316.369 168.143L311.258 164.415L309.356 162.333L308.484 162.544L306.914 164.34L304.14 163.814V163.814V163.814" fill="black"/>
<path d="M295.91 157.23L294.234 159.004L288.071 158.823L284.373 156.606L280.765 156.516L276.624 159.447L272.745 159.628L272.392 161.845H267.988L266.229 163.446V164.333L267.289 165.22V166.197L266.845 167.354L267.289 168.331L268.702 167.625L270.115 169.135L269.761 170.203L269.235 170.917L270.024 171.804L273.903 172.6L276.631 171.443V169.759L277.954 170.022L281.126 171.886L284.561 171.353L286.056 169.932L287.026 170.285V171.886H288.349L289.491 169.669L299.533 168.602L303.915 168.068L302.757 166.55L302.735 164.498L303.614 163.446L300.412 160.875L300.585 158.658H298.826L295.91 157.23V157.23V157.23" fill="black"/>
<path d="M305.899 217.389L306.981 220.606V223.748L309.582 226.108L327.906 218.644L328.079 216.592L325.14 211.316L317.767 213.668L313.535 217.832L308.627 214.931L305.899 217.389V217.389V217.389" fill="black"/>
<path d="M325.734 211.083L331.288 207.881L332.273 203.184L331.055 202.485L331.559 197.449L332.619 196.832L333.754 198.614L340.511 202.146V204.108L332.326 216.156L328.56 216.284L325.734 211.083V211.083V211.083" fill="black"/>
<path d="M322.449 199.132L323.103 201.748L330.514 202.402L331.033 197.035L332.461 196.254L332.852 194.292L330.514 194.946L327.914 198.877L322.449 199.132V199.132V199.132" fill="black"/>
<path d="M321.412 194.683L321.021 197.697L322.179 198.576L323.231 198.478L323.622 194.683L322.712 194.029L321.412 194.683V194.683V194.683" fill="black"/>
<path d="M314.392 185.776L312.701 184.859L311.529 186.039L311.656 188.399L314.385 189.444L314.392 185.776V185.776V185.776" fill="black"/>
<path d="M314.926 190.339L320.195 197.682L321.893 199.035L322.652 202.327L330.762 202.966L331.679 203.447L330.77 207.505L325.441 210.647L317.647 213.007L313.49 217.066L308.552 214.187L305.561 216.803L301.397 210.001L298.541 208.693L297.503 207.122V203.717L287.109 191.15L286.718 188.925H289.709L293.347 185.784L293.475 184.213L292.438 183.168L294.52 181.469L298.939 181.733L306.478 188.016L310.927 187.813L311.213 188.91L314.926 190.339V190.339V190.339" fill="black"/>
<path d="M286.868 172.217L286.605 174.126L288.725 175.013L288.634 180.304L290.754 180.259L292.873 178.658L293.67 178.523L298.481 174.697L299.45 169.143L289.837 170.12L288.822 172.345L286.868 172.217V172.217V172.217" fill="black"/>
<path d="M300.127 169.135L298.954 174.93L294.099 178.974L294.407 180.883L299.149 181.206L306.703 187.354L310.927 187.234L311.04 185.814L312.588 184.153L314.753 185.378L315.039 185.107L310.852 179.538L308.868 179.417L306.23 176.028L306.756 173.532L307.56 173.427L307.838 172.322L304.245 168.542L300.127 169.135V169.135V169.135" fill="black"/>
<path d="M288.544 180.973L286.695 187.422L286.613 188.407H289.521L292.776 185.536L292.858 184.446L291.528 183.085L293.911 181.109L293.565 179.275L292.911 179.425L290.927 180.846L288.544 180.973V180.973V180.973" fill="black"/>
<path d="M286.515 174.705L286.56 176.171L285.944 178.395L288.063 178.576L288.198 175.419L286.515 174.705V174.705V174.705" fill="black"/>
<path d="M285.853 178.929L284.666 182.71L286.207 187.242L287.973 180.62V179.2L285.853 178.929V178.929V178.929" fill="black"/>
<path d="M284.268 172.751L285.192 173.42L282.328 176.133L280.96 176.088L279.946 175.374L280.081 174.044L282.156 173.908L284.268 172.751V172.751V172.751" fill="black"/>
<path d="M263.41 76.7697L264.929 75.6573L264.793 74.4096L263.831 73.8534L263.966 72.3277H264.793V71.4934L261.208 70.5238L255.834 71.08L255.285 73.4401L254.045 73.0267L253.218 71.6362L250.595 71.7715L250.317 74.4096L249.077 74.9658L248.386 73.5754L242.869 78.0174L243.974 79.2651L241.907 80.2346L237.217 89.5396L235.563 90.652L235.698 91.4863L237.352 92.3206L236.938 94.1244L234.18 93.9816L233.353 93.0121L231.564 95.094L230.46 95.9283L230.181 97.875L229.219 98.4312L226.739 98.9874L225.499 102.881L226.326 109.269L227.288 112.186L228.393 113.298L230.873 113.163L234.458 109.69L235.834 107.33L236.247 110.803L238.592 106.639L238.727 94.9663L240.636 93.7637L241.208 87.3224L246.995 78.987L249.753 78.0174L250.994 76.4916L255.127 77.4612L257.194 78.7089L257.886 75.2364L261.336 73.1544L263.41 76.7697V76.7697V76.7697" fill="black"/>
<path d="M211.293 112.05L209.918 114.132L210.467 114.967H213.638V116.357L212.812 117.47L213.36 120.386L215.149 123.858L216.525 127.053L218.727 127.887L219.689 129.556L219.554 131.081L218.178 131.916L218.043 132.607L219.005 133.163L218.178 134.276L216.247 135.11L212.526 134.697L206.731 137.335L204.799 136.365L210.316 133.171L209.625 132.757L206.731 132.479L208.52 129.841L208.798 127.616L211.143 127.338L210.73 123.032L207.971 122.896L207.145 121.927L207.28 118.732L205.626 118.868L207.28 113.313L210.316 111.088L211.293 112.05V112.05V112.05" fill="black"/>
<path d="M205.506 121.363L203.026 121.641L202.89 123.866L204.544 124.978L206.333 124.565L207.024 123.317L205.506 121.363V121.363V121.363" fill="black"/>
<path d="M206.325 125.181L205.641 129.691L199.576 131.916H197.644L196.269 130.946V130.112L199.305 128.165L198.478 126.496L198.614 124.136L201.237 124.272L202.439 121.446L202.282 123.956L204.318 125.572L206.325 125.181V125.181V125.181" fill="black"/>
<path d="M250.077 78.6036L251.55 79.9641H254.308L255.826 82.8803L256.24 87.8785L252.519 90.5167V93.1549L249.896 96.7701L248.378 96.9054L246.311 100.378L246.446 103.715L250.032 106.353L249.753 107.879L248.378 109.961L246.311 111.765L246.446 117.74L243.275 118.853L242.17 121.213H240.651L239.825 117.049L236.375 111.757L239.208 107.015L239.404 95.297L241.358 94.2222L241.831 87.5178L247.401 79.5432L250.077 78.6036V78.6036V78.6036" fill="black"/>
<path d="M256.894 87.8937L258.45 88.5776L259.412 90.3815L258.45 91.6292L253.624 96.9055L252.797 99.6865L253.902 103.715L257.623 106.496L262.583 104.136L266.582 103.58L270.303 97.6045L267.544 91.073L264.921 84.8196L265.334 80.7909L263.681 80.5128L263.252 77.574L261.028 73.9437L258.562 75.6499L257.593 79.6109L254.977 78.04L251.339 77.1531L250.528 78.1001L251.926 79.3629L254.474 79.3178L256.525 82.6324L256.894 87.8937V87.8937V87.8937" fill="black"/>
<path d="M265.372 113.772L260.223 112.937L260.336 115.816L265.109 118.732L267.063 118.161L266.95 115.966L265.372 113.772V113.772V113.772" fill="black"/>
<path d="M256.871 110.968L255.706 110.931L255.03 111.615L255.518 112.336L256.683 112.411L257.285 111.539L256.871 110.968V110.968V110.968" fill="black"/>
<path d="M256.758 114.035L255.631 113.922L253.602 116.35V117.485L254.278 117.748L255.593 117.785L257.773 116.004L258.074 115.395L256.758 114.035V114.035V114.035" fill="black"/>
<path d="M259.915 116.275L258.299 116.237L256.082 118.356H254.203L254.316 121.01L253.188 123.092L257.247 123.129L258.412 122.979L259.577 124.384L262.245 124.272L264.801 121.017L264.65 119.086L259.915 116.275V116.275V116.275" fill="black"/>
<path d="M259.802 124.986L260.93 126.842L260.479 128.323L260.554 129.495L260.967 130.901L263.297 129.578L266.191 129.653L268.221 130.487H273.369L274.872 126.887L275.774 125.527V124.617L272.542 120.07L269.686 118.935L267.356 118.672L265.327 119.319L265.402 121.363L262.583 124.926L259.802 124.986V124.986V124.986" fill="black"/>
<path d="M260.404 131.352L261.043 132.524L261.193 133.772L260.667 134.982L259.464 137.297L258.45 137.756L257.134 137.184L256.345 137.222L254.429 137.944L252.249 137.297L248.716 134.794L245.259 132.938L243.868 130.818L243.605 125.82L246.311 123.467L249.844 122.295L251.159 122.145L250.633 123.204L250.971 123.618L256.916 123.731L258.194 123.693L260.299 126.917L259.772 128.24L259.998 129.796L260.404 131.352V131.352V131.352" fill="black"/>
<path d="M212.977 154.081H203.401L201.47 153.209L200.538 153.276L199.41 155.621L199.809 158.034L203.469 158.372L203.935 159.913L202.342 168.895L202.409 170.503L205.002 171.909L207.994 172.112L213.977 170.639L216.9 166.956L216.968 163.205L222.154 158.515L222.417 156.441L217.697 156.373L212.977 154.081V154.081V154.081" fill="black"/>
<path d="M199.876 158.771L199.41 165.272L198.08 166.475L198.215 167.211L199.147 168.752L198.546 170.631L199.546 170.969L201.876 170.699L201.74 168.82L203.266 160.109L202.935 158.906L199.876 158.771V158.771V158.771" fill="black"/>
<path d="M222.553 163.258L221.358 163.664L221.621 164.738H223.349L224.078 163.934L222.553 163.258V163.258V163.258" fill="black"/>
<path d="M234.924 160.379L232.932 161.386L233.195 165.272L234.789 165.543L235.984 164.4V160.717L234.924 160.379V160.379V160.379" fill="black"/>
<path d="M235.127 155.554L233.661 157.027L233.526 158.365L234.721 159.101L235.187 159.034L235.45 157.087L235.127 155.554V155.554V155.554" fill="black"/>
<path d="M222.026 134.313L220.365 134.719L217.043 138.334L216.044 138.402L214.713 137.462L213.849 137.665L213.188 139.74L208.332 139.875L208.467 140.95L211.79 143.16L215.645 146.241L215.578 149.924L213.518 153.539L217.975 155.682L222.5 155.817L223.898 154.208L226.754 154.276L227.551 155.013L230.407 154.81L231.873 152.931L230.009 150.721L229.873 149.315L230.272 147.775L229.34 146.437L227.746 146.903L227.543 145.7L231.068 141.814V139.469L228.738 138.131L227.543 137.928L222.026 134.313V134.313V134.313" fill="black"/>
<path d="M229.31 126.474L225.905 128.15L226.626 128.804L226.701 130.48L225.98 130.337L225.183 129.097L223.282 132.111L226.205 132.72L227.295 133.87L227.874 133.885L228.257 131.284L230.099 130.51L229.31 126.474V126.474V126.474" fill="black"/>
<path d="M222.936 132.675L222.455 133.877L227.626 137.29L229.114 137.643L229.167 136.027L227.867 134.569H227.07L225.98 133.329L222.936 132.675V132.675V132.675" fill="black"/>
<path d="M230.099 126.181L232.782 125.745V123.851L235.029 123.482L236.262 124.723L237.562 124.865L239.592 123.986L241.403 124.497L242.996 125.88L243.214 131.059L244.808 133.178L242.711 133.471L239.231 135.659L239.524 136.388L242.636 139.304L242.418 140.762L239.524 142.22L236.841 142.295L236.187 143.678H234.811L234.158 142.22L231.767 141.634L231.692 139.229L229.663 137.846L229.881 136.094L228.505 134.2L228.866 131.72L230.745 130.841L230.099 126.181V126.181V126.181" fill="black"/>
<path d="M234.33 113.869L231.211 117.319L231.098 119.567L232.519 123.272L234.744 122.851L234.466 119.822L235.999 118.108L235.969 116.763L234.887 113.96L234.33 113.869V113.869V113.869" fill="black"/>
<path d="M237.84 119.987L237.141 119.957L236.224 120.799L236.337 122.115L238.509 122.175L238.622 120.686L237.84 119.987V119.987V119.987" fill="black"/>
<path d="M250.655 112.87L249.069 114.125L249.866 115.966L251.272 114.598L250.655 112.87V112.87V112.87" fill="black"/>
<path d="M231.429 142.34L228.152 145.828L228.22 146.181L229.565 145.76L230.775 147.444L232.82 146.722L234.233 147.82L234.811 147.489L236.555 144.753L236.112 144.332L234.39 144.287L233.556 142.581L231.429 142.34V142.34V142.34" fill="black"/>
<path d="M243.094 138.951H245.326H246.424L248.205 140.221L251.505 137.477L248.303 135.193L245.131 133.659L242.959 134.05L240.013 135.944L243.094 138.951V138.951V138.951" fill="black"/>
<path d="M248.664 140.649L249.182 141.108L249.25 141.889L254.985 141.762L259.224 139.935L259.156 138.079L258.344 138.44L257.179 137.816L256.465 137.786L254.586 138.537L252.031 137.921L248.664 140.649V140.649V140.649" fill="black"/>
<path d="M237.232 142.897L236.743 143.911L237.164 144.633L238.915 144.272H240.403L242.019 145.64L245.454 145.016L247.98 143.513L248.626 142.498L248.528 141.19L246.258 139.492L243.214 139.522L242.959 141.251L239.757 142.814L237.232 142.897V142.897V142.897" fill="black"/>
<path d="M249.34 142.506L248.468 143.874L248.536 145.963L249.926 146.677L254.203 146.805L260.163 141.784L260.193 140.672L259.547 140.349L255.24 142.303L249.34 142.506V142.506V142.506" fill="black"/>
<path d="M247.882 144.302L245.973 145.445L242.41 146.226L243.124 148.286L245.62 148.316L247.92 146.392L247.882 144.302V144.302V144.302" fill="black"/>
<path d="M248.498 146.685L245.845 148.872H243.154L242.831 150.766L244.064 151.089L244.68 150.172L245.65 151.022L246.424 153.727L251.738 156.208L252.264 155.606L246.875 150.045L247.423 149.03L252.542 148.834L253.061 147.203L249.723 147.301L248.498 146.685V146.685V146.685" fill="black"/>
<path d="M247.882 149.526L247.604 149.984L252.647 155.186L254.496 152.465L254.429 151.39L252.813 149.428L247.882 149.526V149.526V149.526" fill="black"/>
<path d="M230.948 148.053L230.482 149.233L230.61 150.518L232.406 152.615L235.232 152.517L241.471 159.763L245.364 160.89L247.664 163.062L248.213 168.016L249.445 167.294L250.513 164.596L250.25 162.657L252.076 162.491L252.339 161.394L247.19 158.929L242.305 154.126L240.358 151.255L239.885 148.526L242.373 147.933L241.734 146.136L240.208 144.851L238.893 144.791L237.059 145.294L235.33 147.715L234.285 148.406L232.669 147.414L230.948 148.053V148.053V148.053" fill="black"/>
<path d="M246.108 167.625L245.018 167.038L241.298 167.625L241.426 168.632L244.77 170.315L245.274 170.864L246.153 170.992L246.108 167.625V167.625V167.625" fill="black"/>
<path d="M246.236 173.224L244.981 173.48L245.026 174.87L246.153 175.246L246.657 174.825L246.236 173.224V173.224V173.224" fill="black"/>
<path d="M263.493 130.142L261.313 131.367L261.854 133.682L259.84 137.929L259.855 139.8L260.802 140.401L266.875 140.702L268.574 139.296L270.393 139.905L273.001 143.385L271.092 146.813L273.362 147.474L276.33 144.054L278.029 144.362L279.608 145.46L278.217 147.294L280.096 150.225H282.095L283.125 148.271L285.245 147.842L285.305 146.256L281.366 145.648L281.487 143.941H285.305L289.424 140.642L291.242 139.056L291.543 134.05L283.426 133.321L280.096 128.624L277.796 127.834L275.008 127.955L273.752 131.059L268.04 131.134L266.184 130.277L263.493 130.142V130.142V130.142" fill="black"/>
<path d="M267.386 141.085L269.716 144.67L269.521 146.7L270.355 146.737L272.332 143.393L269.957 140.446L268.611 139.89L267.386 141.085V141.085V141.085" fill="black"/>
<path d="M260.945 141.003L260.75 142.115L256.398 145.738L260.036 151.074L262.366 152.705H266.56L267.942 151.548L269.799 151.307L271.182 152.141L273.632 149.353L273.159 147.955L270.671 147.316L268.972 147.233L269.055 144.843L266.8 141.296L260.945 141.003V141.003V141.003" fill="black"/>
<path d="M255.475 155.77L255.441 155.067L254.449 153.674L252.843 155.945L253.159 156.899L254.466 157.14L255.475 155.77V155.77" fill="black"/>
<path d="M255.962 146.218L254.421 147.376H253.669L253.159 148.969L254.977 151.081L255.098 152.758L254.841 153.121L256.071 154.848L256.114 155.764L256.999 156.622L259.885 155.742L259.644 151.638L255.962 146.218V146.218" fill="black"/>
<path d="M260.389 152.119L260.509 155.862L261.772 158.493L266.514 158.575L268.649 157.065L270.746 156.23L270.235 153.84L270.708 152.562L269.641 152.006L268.176 152.126L267.026 153.284L262.2 153.322L260.389 152.119V152.119V152.119" fill="black"/>
<path d="M254.812 157.658V161.123L255.804 162.995L256.518 162.912L257.743 160.68L257.029 159.68L256.751 157.207L255.804 156.328L254.812 157.658V157.658V157.658" fill="black"/>
<path d="M259.998 156.343L257.465 157.177L257.585 159.327L258.179 160.086L261.186 158.688L259.998 156.343V156.343V156.343" fill="black"/>
<path d="M256.834 163.551L256.751 164.551L260.231 166.302L261.892 166.941L261.02 167.858L259.081 168.053L258.803 168.932L259.472 170.443L261.644 171.601L262.591 171.683L262.711 169.09L264.132 167.377L260.253 162.792L260.765 161.236L261.674 161.198L263.057 162.311L263.929 161.875L264.207 160.319L268.281 160.357L268.439 157.966L266.74 159.161L261.757 159.041L258.517 160.717L256.834 163.551V163.551V163.551" fill="black"/>
<path d="M269.092 157.613L268.972 160.281L271.302 159.567L272.369 158.853L272.054 157.696L270.949 156.817L269.092 157.613V157.613V157.613" fill="black"/>
<path d="M264.387 173.314L265.613 173.352L266.124 174.111H267.905L269.092 173.675L269.491 174.156L268.702 175.193L265.222 175.314L264.59 174.479L263.921 174.081L264.387 173.314V173.314V173.314" fill="black"/>
<path fill-rule="evenodd" clip-rule="evenodd" d="M315.758 233.883L316.879 234.006L315.758 233.883" fill="white"/>
</g>
<defs>
<clipPath id="clip0_15_124">
<rect width="714.032" height="466" fill="white" transform="translate(-124.016)"/>
</clipPath>
</defs>
</svg>
